<?xml version="1.0" standalone="no"?><!DOCTYPE svg PUBLIC "-//W3C//DTD SVG 1.1//EN" "http://www.w3.org/Graphics/SVG/1.1/DTD/svg11.dtd"><svg t="1722502822678" class="icon" viewBox="0 0 1024 1024" version="1.1" xmlns="http://www.w3.org/2000/svg" p-id="4431" xmlns:xlink="http://www.w3.org/1999/xlink" width="200" height="200"><path d="M434.842791 669.172093l-126.690233 0.15876-0.15876-99.066047v-11.271938c125.102636-19.368682 220.675969-121.768682 220.51721-245.44248 0.15876-137.485891-117.95845-248.935194-263.541086-248.776435C119.387287 64.932713 1.428837 176.382016 1.587597 313.867907c0.15876 123.673798 95.890853 225.915039 220.993488 245.124961v11.271938l0.15876 99.066047-130.024186 0.158759c-23.655194 0-42.706357 18.098605-42.706357 40.483721s19.209922 40.324961 42.706357 40.324962l130.024186-0.15876 0.15876 143.36c0 22.385116 19.209922 40.324961 42.865116 40.324961s42.706357-18.098605 42.706357-40.483721l-0.15876-143.36 126.690232-0.158759c23.655194 0 42.706357-18.098605 42.706357-40.483721 0-22.067597-19.209922-40.166202-42.865116-40.166202z m368.163721-230.042791l-0.15876-235.59938 80.014884 76.83969c8.414264 8.096744 19.527442 12.065736 30.48186 12.065737 10.795659 0 21.591318-3.810233 30.005582-11.589458 16.828527-15.55845 17.146047-41.11876 0.476279-57.153488L819.2 104.146357c-7.144186-8.731783-23.337674-24.607752-49.691783-27.624186C753.473488 74.617054 728.706977 77.633488 703.305426 101.606202c-32.704496 31.116899-127.007752 122.403721-127.007752 122.40372l0.15876 0.15876c-7.461705 7.302946-12.224496 17.146047-12.224496 28.100465 0 22.385116 19.209922 40.324961 42.865116 40.324962 11.906977 0 22.702636-4.762791 30.481861-12.224497 0 0 42.071318-40.80124 79.697364-76.998449l0.15876 235.758139c-125.102636 19.527442-220.675969 121.768682-220.51721 245.442481 0.15876 137.485891 118.275969 248.776434 263.699845 248.776434C906.20031 933.189457 1024 821.740155 1024 684.254264c-0.15876-123.673798-95.732093-225.915039-220.993488-245.124962z m0 0" fill="#bfbfbf" p-id="4432"></path></svg>